<svg id="visual" viewBox="0 0 960 540" width="960" height="540" xmlns="http://www.w3.org/2000/svg" xmlns:xlink="http://www.w3.org/1999/xlink" version="1.1"><rect x="0" y="0" width="960" height="540" fill="#001220"></rect><defs><linearGradient id="grad1_0" x1="43.8%" y1="0%" x2="100%" y2="100%"><stop offset="14.444444444444446%" stop-color="#3cfae9" stop-opacity="1"></stop><stop offset="85.55555555555554%" stop-color="#3cfae9" stop-opacity="1"></stop></linearGradient></defs><defs><linearGradient id="grad1_1" x1="43.8%" y1="0%" x2="100%" y2="100%"><stop offset="14.444444444444446%" stop-color="#3cfae9" stop-opacity="1"></stop><stop offset="85.55555555555554%" stop-color="#00a4b5" stop-opacity="1"></stop></linearGradient></defs><defs><linearGradient id="grad1_2" x1="43.8%" y1="0%" x2="100%" y2="100%"><stop offset="14.444444444444446%" stop-color="#00556d" stop-opacity="1"></stop><stop offset="85.55555555555554%" stop-color="#00a4b5" stop-opacity="1"></stop></linearGradient></defs><defs><linearGradient id="grad1_3" x1="43.8%" y1="0%" x2="100%" y2="100%"><stop offset="14.444444444444446%" stop-color="#00556d" stop-opacity="1"></stop><stop offset="85.55555555555554%" stop-color="#001220" stop-opacity="1"></stop></linearGradient></defs><defs><linearGradient id="grad2_0" x1="0%" y1="0%" x2="56.3%" y2="100%"><stop offset="14.444444444444446%" stop-color="#3cfae9" stop-opacity="1"></stop><stop offset="85.55555555555554%" stop-color="#3cfae9" stop-opacity="1"></stop></linearGradient></defs><defs><linearGradient id="grad2_1" x1="0%" y1="0%" x2="56.3%" y2="100%"><stop offset="14.444444444444446%" stop-color="#00a4b5" stop-opacity="1"></stop><stop offset="85.55555555555554%" stop-color="#3cfae9" stop-opacity="1"></stop></linearGradient></defs><defs><linearGradient id="grad2_2" x1="0%" y1="0%" x2="56.3%" y2="100%"><stop offset="14.444444444444446%" stop-color="#00a4b5" stop-opacity="1"></stop><stop offset="85.55555555555554%" stop-color="#00556d" stop-opacity="1"></stop></linearGradient></defs><defs><linearGradient id="grad2_3" x1="0%" y1="0%" x2="56.3%" y2="100%"><stop offset="14.444444444444446%" stop-color="#001220" stop-opacity="1"></stop><stop offset="85.55555555555554%" stop-color="#00556d" stop-opacity="1"></stop></linearGradient></defs><g transform="translate(960, 0)"><path d="M0 486C-61.6 433.6 -123.2 381.2 -200.5 347.3C-277.8 313.3 -370.7 297.8 -420.9 243C-471.1 188.2 -478.5 94.1 -486 0L0 0Z" fill="#053246"></path><path d="M0 364.5C-46.2 325.2 -92.4 285.9 -150.4 260.5C-208.3 235 -278 223.4 -315.7 182.3C-353.3 141.1 -358.9 70.6 -364.5 0L0 0Z" fill="#007b93"></path><path d="M0 243C-30.8 216.8 -61.6 190.6 -100.2 173.6C-138.9 156.7 -185.3 148.9 -210.4 121.5C-235.5 94.1 -239.3 47 -243 0L0 0Z" fill="#00cfd2"></path><path d="M0 121.5C-15.4 108.4 -30.8 95.3 -50.1 86.8C-69.4 78.3 -92.7 74.5 -105.2 60.8C-117.8 47 -119.6 23.5 -121.5 0L0 0Z" fill="#3cfae9"></path></g><g transform="translate(0, 540)"><path d="M0 -486C98.7 -481.2 197.4 -476.4 243 -420.9C288.6 -365.4 281 -259.1 312.6 -180.5C344.3 -101.9 415.1 -50.9 486 0L0 0Z" fill="#053246"></path><path d="M0 -364.5C74 -360.9 148.1 -357.3 182.2 -315.7C216.4 -274 210.7 -194.3 234.5 -135.4C258.2 -76.4 311.4 -38.2 364.5 0L0 0Z" fill="#007b93"></path><path d="M0 -243C49.4 -240.6 98.7 -238.2 121.5 -210.4C144.3 -182.7 140.5 -129.6 156.3 -90.3C172.1 -50.9 207.6 -25.5 243 0L0 0Z" fill="#00cfd2"></path><path d="M0 -121.5C24.7 -120.3 49.4 -119.1 60.7 -105.2C72.1 -91.3 70.2 -64.8 78.2 -45.1C86.1 -25.5 103.8 -12.7 121.5 0L0 0Z" fill="#3cfae9"></path></g></svg>