<svg id="visual" viewBox="0 0 1280 540" width="1280" height="540" xmlns="http://www.w3.org/2000/svg" xmlns:xlink="http://www.w3.org/1999/xlink" version="1.1"><rect x="0" y="0" width="1280" height="540" fill="#001220"></rect><defs><linearGradient id="grad1_0" x1="57.8%" y1="0%" x2="100%" y2="100%"><stop offset="2.5925925925925952%" stop-color="#a43cfa" stop-opacity="1"></stop><stop offset="97.40740740740739%" stop-color="#a43cfa" stop-opacity="1"></stop></linearGradient></defs><defs><linearGradient id="grad1_1" x1="57.8%" y1="0%" x2="100%" y2="100%"><stop offset="2.5925925925925952%" stop-color="#a43cfa" stop-opacity="1"></stop><stop offset="97.40740740740739%" stop-color="#5a46d9" stop-opacity="1"></stop></linearGradient></defs><defs><linearGradient id="grad1_2" x1="57.8%" y1="0%" x2="100%" y2="100%"><stop offset="2.5925925925925952%" stop-color="#0042ae" stop-opacity="1"></stop><stop offset="97.40740740740739%" stop-color="#5a46d9" stop-opacity="1"></stop></linearGradient></defs><defs><linearGradient id="grad1_3" x1="57.8%" y1="0%" x2="100%" y2="100%"><stop offset="2.5925925925925952%" stop-color="#0042ae" stop-opacity="1"></stop><stop offset="97.40740740740739%" stop-color="#00367f" stop-opacity="1"></stop></linearGradient></defs><defs><linearGradient id="grad1_4" x1="57.8%" y1="0%" x2="100%" y2="100%"><stop offset="2.5925925925925952%" stop-color="#00254e" stop-opacity="1"></stop><stop offset="97.40740740740739%" stop-color="#00367f" stop-opacity="1"></stop></linearGradient></defs><defs><linearGradient id="grad1_5" x1="57.8%" y1="0%" x2="100%" y2="100%"><stop offset="2.5925925925925952%" stop-color="#00254e" stop-opacity="1"></stop><stop offset="97.40740740740739%" stop-color="#001220" stop-opacity="1"></stop></linearGradient></defs><defs><linearGradient id="grad2_0" x1="0%" y1="0%" x2="42.2%" y2="100%"><stop offset="2.5925925925925952%" stop-color="#a43cfa" stop-opacity="1"></stop><stop offset="97.40740740740739%" stop-color="#a43cfa" stop-opacity="1"></stop></linearGradient></defs><defs><linearGradient id="grad2_1" x1="0%" y1="0%" x2="42.2%" y2="100%"><stop offset="2.5925925925925952%" stop-color="#5a46d9" stop-opacity="1"></stop><stop offset="97.40740740740739%" stop-color="#a43cfa" stop-opacity="1"></stop></linearGradient></defs><defs><linearGradient id="grad2_2" x1="0%" y1="0%" x2="42.2%" y2="100%"><stop offset="2.5925925925925952%" stop-color="#5a46d9" stop-opacity="1"></stop><stop offset="97.40740740740739%" stop-color="#0042ae" stop-opacity="1"></stop></linearGradient></defs><defs><linearGradient id="grad2_3" x1="0%" y1="0%" x2="42.2%" y2="100%"><stop offset="2.5925925925925952%" stop-color="#00367f" stop-opacity="1"></stop><stop offset="97.40740740740739%" stop-color="#0042ae" stop-opacity="1"></stop></linearGradient></defs><defs><linearGradient id="grad2_4" x1="0%" y1="0%" x2="42.2%" y2="100%"><stop offset="2.5925925925925952%" stop-color="#00367f" stop-opacity="1"></stop><stop offset="97.40740740740739%" stop-color="#00254e" stop-opacity="1"></stop></linearGradient></defs><defs><linearGradient id="grad2_5" x1="0%" y1="0%" x2="42.2%" y2="100%"><stop offset="2.5925925925925952%" stop-color="#001220" stop-opacity="1"></stop><stop offset="97.40740740740739%" stop-color="#00254e" stop-opacity="1"></stop></linearGradient></defs><g transform="translate(1280, 0)"><path d="M0 486C-57.1 466.1 -114.3 446.3 -176.8 426.8C-239.3 407.4 -307.2 388.3 -343.7 343.7C-380.1 299 -385.2 228.8 -403.7 167.2C-422.2 105.7 -454.1 52.8 -486 0L0 0Z" fill="#001c36"></path><path d="M0 405C-47.6 388.5 -95.2 371.9 -147.3 355.7C-199.4 339.5 -256 323.6 -286.4 286.4C-316.8 249.2 -321 190.6 -336.4 139.4C-351.9 88.1 -378.4 44 -405 0L0 0Z" fill="#002e66"></path><path d="M0 324C-38.1 310.8 -76.2 297.5 -117.9 284.6C-159.5 271.6 -204.8 258.9 -229.1 229.1C-253.4 199.3 -256.8 152.5 -269.2 111.5C-281.5 70.5 -302.7 35.2 -324 0L0 0Z" fill="#003d97"></path><path d="M0 243C-28.6 233.1 -57.1 223.1 -88.4 213.4C-119.7 203.7 -153.6 194.2 -171.8 171.8C-190.1 149.5 -192.6 114.4 -201.9 83.6C-211.1 52.8 -227.1 26.4 -243 0L0 0Z" fill="#3545c4"></path><path d="M0 162C-19 155.4 -38.1 148.8 -58.9 142.3C-79.8 135.8 -102.4 129.4 -114.6 114.6C-126.7 99.7 -128.4 76.3 -134.6 55.7C-140.7 35.2 -151.4 17.6 -162 0L0 0Z" fill="#7f44eb"></path><path d="M0 81C-9.5 77.7 -19 74.4 -29.5 71.1C-39.9 67.9 -51.2 64.7 -57.3 57.3C-63.4 49.8 -64.2 38.1 -67.3 27.9C-70.4 17.6 -75.7 8.8 -81 0L0 0Z" fill="#a43cfa"></path></g><g transform="translate(0, 540)"><path d="M0 -486C56.2 -465.7 112.3 -445.5 176.8 -426.8C241.3 -408.2 314.1 -391.2 343.7 -343.7C373.2 -296.1 359.5 -218.1 376 -155.8C392.5 -93.4 439.3 -46.7 486 0L0 0Z" fill="#001c36"></path><path d="M0 -405C46.8 -388.1 93.6 -371.2 147.3 -355.7C201.1 -340.2 261.7 -326 286.4 -286.4C311 -246.8 299.6 -181.8 313.3 -129.8C327.1 -77.8 366.1 -38.9 405 0L0 0Z" fill="#002e66"></path><path d="M0 -324C37.4 -310.5 74.9 -297 117.9 -284.6C160.9 -272.1 209.4 -260.8 229.1 -229.1C248.8 -197.4 239.7 -145.4 250.7 -103.8C261.7 -62.3 292.8 -31.1 324 0L0 0Z" fill="#003d97"></path><path d="M0 -243C28.1 -232.9 56.2 -222.7 88.4 -213.4C120.6 -204.1 157 -195.6 171.8 -171.8C186.6 -148.1 179.8 -109.1 188 -77.9C196.3 -46.7 219.6 -23.3 243 0L0 0Z" fill="#3545c4"></path><path d="M0 -162C18.7 -155.2 37.4 -148.5 58.9 -142.3C80.4 -136.1 104.7 -130.4 114.6 -114.6C124.4 -98.7 119.8 -72.7 125.3 -51.9C130.8 -31.1 146.4 -15.6 162 0L0 0Z" fill="#7f44eb"></path><path d="M0 -81C9.4 -77.6 18.7 -74.2 29.5 -71.1C40.2 -68 52.3 -65.2 57.3 -57.3C62.2 -49.4 59.9 -36.4 62.7 -26C65.4 -15.6 73.2 -7.8 81 0L0 0Z" fill="#a43cfa"></path></g></svg>