<svg id="visual" viewBox="0 0 960 540" width="960" height="540" xmlns="http://www.w3.org/2000/svg" xmlns:xlink="http://www.w3.org/1999/xlink" version="1.1"><rect x="0" y="0" width="960" height="540" fill="#001220"></rect><defs><linearGradient id="grad1_0" x1="43.8%" y1="0%" x2="100%" y2="100%"><stop offset="14.444444444444446%" stop-color="#00ffe0" stop-opacity="1"></stop><stop offset="85.55555555555554%" stop-color="#00ffe0" stop-opacity="1"></stop></linearGradient></defs><defs><linearGradient id="grad1_1" x1="43.8%" y1="0%" x2="100%" y2="100%"><stop offset="14.444444444444446%" stop-color="#00ffe0" stop-opacity="1"></stop><stop offset="85.55555555555554%" stop-color="#00caca" stop-opacity="1"></stop></linearGradient></defs><defs><linearGradient id="grad1_2" x1="43.8%" y1="0%" x2="100%" y2="100%"><stop offset="14.444444444444446%" stop-color="#0097aa" stop-opacity="1"></stop><stop offset="85.55555555555554%" stop-color="#00caca" stop-opacity="1"></stop></linearGradient></defs><defs><linearGradient id="grad1_3" x1="43.8%" y1="0%" x2="100%" y2="100%"><stop offset="14.444444444444446%" stop-color="#0097aa" stop-opacity="1"></stop><stop offset="85.55555555555554%" stop-color="#006680" stop-opacity="1"></stop></linearGradient></defs><defs><linearGradient id="grad1_4" x1="43.8%" y1="0%" x2="100%" y2="100%"><stop offset="14.444444444444446%" stop-color="#003950" stop-opacity="1"></stop><stop offset="85.55555555555554%" stop-color="#006680" stop-opacity="1"></stop></linearGradient></defs><defs><linearGradient id="grad1_5" x1="43.8%" y1="0%" x2="100%" y2="100%"><stop offset="14.444444444444446%" stop-color="#003950" stop-opacity="1"></stop><stop offset="85.55555555555554%" stop-color="#001220" stop-opacity="1"></stop></linearGradient></defs><defs><linearGradient id="grad2_0" x1="0%" y1="0%" x2="56.3%" y2="100%"><stop offset="14.444444444444446%" stop-color="#00ffe0" stop-opacity="1"></stop><stop offset="85.55555555555554%" stop-color="#00ffe0" stop-opacity="1"></stop></linearGradient></defs><defs><linearGradient id="grad2_1" x1="0%" y1="0%" x2="56.3%" y2="100%"><stop offset="14.444444444444446%" stop-color="#00caca" stop-opacity="1"></stop><stop offset="85.55555555555554%" stop-color="#00ffe0" stop-opacity="1"></stop></linearGradient></defs><defs><linearGradient id="grad2_2" x1="0%" y1="0%" x2="56.3%" y2="100%"><stop offset="14.444444444444446%" stop-color="#00caca" stop-opacity="1"></stop><stop offset="85.55555555555554%" stop-color="#0097aa" stop-opacity="1"></stop></linearGradient></defs><defs><linearGradient id="grad2_3" x1="0%" y1="0%" x2="56.3%" y2="100%"><stop offset="14.444444444444446%" stop-color="#006680" stop-opacity="1"></stop><stop offset="85.55555555555554%" stop-color="#0097aa" stop-opacity="1"></stop></linearGradient></defs><defs><linearGradient id="grad2_4" x1="0%" y1="0%" x2="56.3%" y2="100%"><stop offset="14.444444444444446%" stop-color="#006680" stop-opacity="1"></stop><stop offset="85.55555555555554%" stop-color="#003950" stop-opacity="1"></stop></linearGradient></defs><defs><linearGradient id="grad2_5" x1="0%" y1="0%" x2="56.3%" y2="100%"><stop offset="14.444444444444446%" stop-color="#001220" stop-opacity="1"></stop><stop offset="85.55555555555554%" stop-color="#003950" stop-opacity="1"></stop></linearGradient></defs><g transform="translate(960, 0)"><path d="M0 513C-25.6 516.5 -51.3 520 -73 507.8C-94.8 495.6 -112.6 467.7 -133.5 454.8C-154.5 441.9 -178.4 443.9 -198.2 433.9C-217.9 423.9 -233.4 402 -244.9 381.1C-256.4 360.2 -264 340.4 -292.1 337.1C-320.2 333.7 -368.8 346.7 -376.4 326.1C-383.9 305.5 -350.4 251.3 -344.9 221.7C-339.4 192.1 -361.8 187.1 -391.1 178.6C-420.5 170.1 -456.7 158 -474.9 139.5C-493.2 120.9 -493.5 95.8 -496.9 71.4C-500.2 47.1 -506.6 23.6 -513 0L0 0Z" fill="#022538"></path><path d="M0 427.5C-21.4 430.4 -42.7 433.3 -60.8 423.1C-79 413 -93.9 389.8 -111.3 379C-128.7 368.2 -148.7 369.9 -165.1 361.6C-181.6 353.3 -194.5 335 -204.1 317.6C-213.7 300.2 -220 283.7 -243.4 280.9C-266.8 278.1 -307.3 288.9 -313.6 271.8C-319.9 254.6 -292 209.4 -287.4 184.7C-282.8 160.1 -301.5 155.9 -326 148.9C-350.4 141.8 -380.6 131.7 -395.8 116.2C-411 100.7 -411.3 79.8 -414.1 59.5C-416.9 39.3 -422.2 19.6 -427.5 0L0 0Z" fill="#004f68"></path><path d="M0 342C-17.1 344.3 -34.2 346.6 -48.7 338.5C-63.2 330.4 -75.1 311.8 -89 303.2C-103 294.6 -118.9 295.9 -132.1 289.3C-145.3 282.6 -155.6 268 -163.3 254.1C-171 240.1 -176 227 -194.7 224.7C-213.4 222.5 -245.9 231.2 -250.9 217.4C-256 203.7 -233.6 167.5 -229.9 147.8C-226.3 128 -241.2 124.8 -260.8 119.1C-280.3 113.4 -304.5 105.4 -316.6 93C-328.8 80.6 -329 63.8 -331.3 47.6C-333.5 31.4 -337.7 15.7 -342 0L0 0Z" fill="#007e96"></path><path d="M0 256.5C-12.8 258.2 -25.6 260 -36.5 253.9C-47.4 247.8 -56.3 233.9 -66.8 227.4C-77.2 220.9 -89.2 221.9 -99.1 216.9C-108.9 212 -116.7 201 -122.5 190.5C-128.2 180.1 -132 170.2 -146 168.5C-160.1 166.8 -184.4 173.4 -188.2 163.1C-192 152.8 -175.2 125.6 -172.5 110.8C-169.7 96 -180.9 93.6 -195.6 89.3C-210.2 85.1 -228.3 79 -237.5 69.7C-246.6 60.4 -246.8 47.9 -248.4 35.7C-250.1 23.6 -253.3 11.8 -256.5 0L0 0Z" fill="#00b0bb"></path><path d="M0 171C-8.5 172.2 -17.1 173.3 -24.3 169.3C-31.6 165.2 -37.5 155.9 -44.5 151.6C-51.5 147.3 -59.5 148 -66.1 144.6C-72.6 141.3 -77.8 134 -81.6 127C-85.5 120.1 -88 113.5 -97.4 112.4C-106.7 111.2 -122.9 115.6 -125.5 108.7C-128 101.8 -116.8 83.8 -115 73.9C-113.1 64 -120.6 62.4 -130.4 59.5C-140.2 56.7 -152.2 52.7 -158.3 46.5C-164.4 40.3 -164.5 31.9 -165.6 23.8C-166.7 15.7 -168.9 7.9 -171 0L0 0Z" fill="#00e5d7"></path><path d="M0 85.5C-4.3 86.1 -8.5 86.7 -12.2 84.6C-15.8 82.6 -18.8 78 -22.3 75.8C-25.7 73.6 -29.7 74 -33 72.3C-36.3 70.7 -38.9 67 -40.8 63.5C-42.7 60 -44 56.7 -48.7 56.2C-53.4 55.6 -61.5 57.8 -62.7 54.4C-64 50.9 -58.4 41.9 -57.5 36.9C-56.6 32 -60.3 31.2 -65.2 29.8C-70.1 28.4 -76.1 26.3 -79.2 23.2C-82.2 20.1 -82.3 16 -82.8 11.9C-83.4 7.9 -84.4 3.9 -85.5 0L0 0Z" fill="#00ffe0"></path></g><g transform="translate(0, 540)"><path d="M0 -513C20.6 -477.2 41.1 -441.3 61.3 -426.6C81.5 -411.9 101.4 -418.2 125.1 -426C148.8 -433.8 176.3 -443 204 -446.6C231.6 -450.2 259.4 -448.3 276.8 -430.7C294.2 -413.2 301.2 -380.1 303.2 -349.9C305.2 -319.7 302.3 -292.3 328 -284.2C353.6 -276.1 407.8 -287.2 422.3 -271.4C436.8 -255.6 411.6 -212.9 403.9 -184.4C396.2 -156 406 -141.6 429.9 -126.2C453.7 -110.8 491.6 -94.2 507.8 -73C524 -51.8 518.5 -25.9 513 0L0 0Z" fill="#022538"></path><path d="M0 -427.5C17.1 -397.6 34.3 -367.8 51.1 -355.5C68 -343.2 84.5 -348.5 104.2 -355C124 -361.5 146.9 -369.2 170 -372.2C193 -375.2 216.2 -373.5 230.7 -358.9C245.2 -344.3 251 -316.8 252.7 -291.6C254.4 -266.4 252 -243.6 273.3 -236.8C294.7 -230.1 339.9 -239.3 351.9 -226.2C364 -213 343 -177.4 336.6 -153.7C330.1 -130 338.3 -118 358.2 -105.2C378.1 -92.3 409.7 -78.5 423.1 -60.8C436.6 -43.2 432.1 -21.6 427.5 0L0 0Z" fill="#004f68"></path><path d="M0 -342C13.7 -318.1 27.4 -294.2 40.9 -284.4C54.4 -274.6 67.6 -278.8 83.4 -284C99.2 -289.2 117.5 -295.3 136 -297.8C154.4 -300.2 173 -298.8 184.5 -287.1C196.1 -275.5 200.8 -253.4 202.1 -233.3C203.5 -213.1 201.6 -194.9 218.7 -189.5C235.8 -184.1 271.9 -191.5 281.5 -180.9C291.2 -170.4 274.4 -142 269.3 -123C264.1 -104 270.7 -94.4 286.6 -84.1C302.5 -73.9 327.7 -62.8 338.5 -48.7C349.3 -34.5 345.7 -17.3 342 0L0 0Z" fill="#007e96"></path><path d="M0 -256.5C10.3 -238.6 20.6 -220.7 30.7 -213.3C40.8 -205.9 50.7 -209.1 62.5 -213C74.4 -216.9 88.2 -221.5 102 -223.3C115.8 -225.1 129.7 -224.1 138.4 -215.4C147.1 -206.6 150.6 -190.1 151.6 -175C152.6 -159.8 151.2 -146.2 164 -142.1C176.8 -138 203.9 -143.6 211.2 -135.7C218.4 -127.8 205.8 -106.5 201.9 -92.2C198.1 -78 203 -70.8 214.9 -63.1C226.9 -55.4 245.8 -47.1 253.9 -36.5C262 -25.9 259.2 -12.9 256.5 0L0 0Z" fill="#00b0bb"></path><path d="M0 -171C6.9 -159.1 13.7 -147.1 20.4 -142.2C27.2 -137.3 33.8 -139.4 41.7 -142C49.6 -144.6 58.8 -147.7 68 -148.9C77.2 -150.1 86.5 -149.4 92.3 -143.6C98.1 -137.7 100.4 -126.7 101.1 -116.6C101.7 -106.6 100.8 -97.4 109.3 -94.7C117.9 -92 135.9 -95.7 140.8 -90.5C145.6 -85.2 137.2 -71 134.6 -61.5C132.1 -52 135.3 -47.2 143.3 -42.1C151.2 -36.9 163.9 -31.4 169.3 -24.3C174.7 -17.3 172.8 -8.6 171 0L0 0Z" fill="#00e5d7"></path><path d="M0 -85.5C3.4 -79.5 6.9 -73.6 10.2 -71.1C13.6 -68.6 16.9 -69.7 20.8 -71C24.8 -72.3 29.4 -73.8 34 -74.4C38.6 -75 43.2 -74.7 46.1 -71.8C49 -68.9 50.2 -63.4 50.5 -58.3C50.9 -53.3 50.4 -48.7 54.7 -47.4C58.9 -46 68 -47.9 70.4 -45.2C72.8 -42.6 68.6 -35.5 67.3 -30.7C66 -26 67.7 -23.6 71.6 -21C75.6 -18.5 81.9 -15.7 84.6 -12.2C87.3 -8.6 86.4 -4.3 85.5 0L0 0Z" fill="#00ffe0"></path></g></svg>